# xmcd
# 
# Track frame offsets:
#     150
#     19488
#     46007
#     64247
#     80424
#     106962
#     125862
#     141458
#     162073
#     186800
#     204551
#     235586
# 
# Disc length: 3375
# 
# Revision: 2
# Processed by: cddbd v1.5.2PL0 Copyright (c) Steve Scherf et al.
# Submitted via: fre:ac v1.0.17
# 
DISCID=a60d2d0c
DTITLE=Robert Walter - Giving Up the Ghost
DYEAR=2003
DGENRE=Acid Jazz
TTITLE0=Glassy-Winged Sharp Shooter
TTITLE1=Aquafresh
TTITLE2=Convex+Concave
TTITLE3=Circle Limit
TTITLE4=Bygones Be
TTITLE5=Dump Truck
TTITLE6=Easy Virtue
TTITLE7=Clear All Wires
TTITLE8=Bet
TTITLE9=Underbrush
TTITLE10=Sacred Secret
TTITLE11=Giving Up the Ghost
EXTD=YEAR: 2003
EXTT0=
EXTT1=
EXTT2=
EXTT3=
EXTT4=
EXTT5=
EXTT6=
EXTT7=
EXTT8=
EXTT9=
EXTT10=
EXTT11=
PLAYORDER=
